<svg width="27" height="24" viewBox="0 0 27 24" fill="none" xmlns="http://www.w3.org/2000/svg">
<mask id="mask0_8_11" style="mask-type:alpha" maskUnits="userSpaceOnUse" x="0" y="0" width="27" height="24">
<rect x="0.23642" width="26.2236" height="24" fill="#D9D9D9"/>
</mask>
<g mask="url(#mask0_8_11)">
<path d="M3.51437 11V3H12.2556V11H3.51437ZM5.69968 9H10.0703V5H5.69968V9ZM3.51437 21V13H12.2556V21H3.51437ZM5.69968 19H10.0703V15H5.69968V19ZM14.4409 11V3H23.1821V11H14.4409ZM16.6262 9H20.9968V5H16.6262V9ZM20.9968 21V19H23.1821V21H20.9968ZM14.4409 15V13H16.6262V15H14.4409ZM16.6262 17V15H18.8115V17H16.6262ZM14.4409 19V17H16.6262V19H14.4409ZM16.6262 21V19H18.8115V21H16.6262ZM18.8115 19V17H20.9968V19H18.8115ZM18.8115 15V13H20.9968V15H18.8115ZM20.9968 17V15H23.1821V17H20.9968Z" fill="#1C1B1F"/>
</g>
</svg>
