<svg width="28" height="24" viewBox="0 0 28 24" fill="none" xmlns="http://www.w3.org/2000/svg">
<mask id="mask0_8_17" style="mask-type:alpha" maskUnits="userSpaceOnUse" x="0" y="0" width="28" height="24">
<rect x="0.808304" width="26.2236" height="24" fill="#D9D9D9"/>
</mask>
<g mask="url(#mask0_8_17)">
<path d="M22.2243 21L15.3406 14.7C14.7942 15.1 14.166 15.4167 13.4557 15.65C12.7455 15.8833 11.9898 16 11.1885 16C9.20351 16 7.52356 15.3708 6.14864 14.1125C4.77372 12.8542 4.08626 11.3167 4.08626 9.5C4.08626 7.68333 4.77372 6.14583 6.14864 4.8875C7.52356 3.62917 9.20351 3 11.1885 3C13.1735 3 14.8534 3.62917 16.2284 4.8875C17.6033 6.14583 18.2907 7.68333 18.2907 9.5C18.2907 10.2333 18.1633 10.925 17.9083 11.575C17.6534 12.225 17.3073 12.8 16.8703 13.3L23.754 19.6L22.2243 21ZM11.1885 14C12.5543 14 13.7153 13.5625 14.6713 12.6875C15.6274 11.8125 16.1054 10.75 16.1054 9.5C16.1054 8.25 15.6274 7.1875 14.6713 6.3125C13.7153 5.4375 12.5543 5 11.1885 5C9.82268 5 8.66174 5.4375 7.70567 6.3125C6.7496 7.1875 6.27156 8.25 6.27156 9.5C6.27156 10.75 6.7496 11.8125 7.70567 12.6875C8.66174 13.5625 9.82268 14 11.1885 14Z" fill="#1C1B1F"/>
</g>
</svg>
